<svg xmlns="http://www.w3.org/2000/svg" viewBox="142.8742 93.2214 215.896 213.2174">
  <g transform="matrix(0.045906003564596176, 0, 0, -0.045906003564596176, 15.852262496948242, 490.2171325683594)" fill="#7846ec" stroke="none">
    <path d="M4895 8643 c-695 -60 -1343 -446 -1734 -1032 -67 -101 -151 -245 -151 -261 0 -13 -3 -14 97 15 424 124 901 142 1363 54 163 -31 496 -137 665 -211 436 -193 621 -264 814 -314 280 -72 536 -100 826 -90 208 7 297 16 487 52 l136 26 -5 36 c-3 21 -26 96 -51 167 -113 329 -301 624 -562 885 -380 380 -852 604 -1410 670 -78 9 -382 11 -475 3z"/>
    <path d="M3815 6983 c-206 -8 -439 -44 -634 -99 -111 -31 -361 -112 -369 -119 -9 -8 -32 -206 -38 -321 l-7 -131 144 48 c558 187 1107 205 1664 55 284 -76 465 -143 934 -346 139 -60 422 -142 631 -184 358 -72 748 -58 1122 38 203 53 183 37 196 156 7 55 12 151 12 213 l0 113 -112 -23 c-247 -49 -355 -58 -678 -58 -327 0 -404 7 -650 62 -260 57 -434 119 -855 303 -184 80 -234 100 -339 135 -311 102 -472 137 -726 155 -80 5 -163 9 -185 8 -22 -1 -71 -3 -110 -5z"/>
    <path d="M3710 6033 c-178 -12 -400 -52 -576 -103 -157 -46 -304 -101 -304 -114 0 -31 44 -187 81 -287 111 -307 292 -584 543 -834 217 -216 430 -365 685 -481 487 -220 1048 -270 1571 -139 652 163 1223 624 1521 1228 38 77 68 142 65 144 -2 2 -48 -5 -102 -16 -270 -54 -591 -75 -819 -52 -357 36 -684 123 -1055 280 -425 181 -596 244 -796 295 -271 69 -562 97 -814 79z"/>
  </g>
</svg>
